<?xml version="1.0" ?><svg viewBox="0 0 1000 1000" xmlns="http://www.w3.org/2000/svg"><path d="m776 352.19c-7.38 13.24-16.55 25.63-28.15 35.39-9.07 7.63-19.46 13.52-29.82 19.28-2.55 1.42-5.3 3.05-6.32 5.78-.9 2.43-.2 5.13.5 7.63 2.53 9 5.29 18.43 11.79 25.16 1.45 1.5 3.11 2.92 3.79 4.88.55 1.59.38 3.33.58 5 .8 6.75 8.79 11.6 15.15 9.19 2.15-.81 4.24-2.32 6.52-2 1.94.3 3.4 1.86 5 2.92 4.47 2.84 10.56 1.86 15-1s7.64-7.29 10.72-11.61l8.73-12.25c2.34-3.29 4.8-7.18 3.74-11.07" fill="#18c4ff"/><path d="m729.4 401c-5 2.31-10.73 1.91-16.2 1.46l-38.43-3.16a70.21 70.21 0 0 0 -14-.22 23.55 23.55 0 0 0 -12.85 5.24c-1 .93-2 2.59-1.06 3.63a2.65 2.65 0 0 0 2.22.55 16.47 16.47 0 0 0 7.87-2.75 15.24 15.24 0 0 0 6.59 9.86 31.47 31.47 0 0 0 11.24 4.52 73.37 73.37 0 0 1 10.07 2.51c2.55 1 4.91 2.36 7.39 3.49 10 4.56 21.35 4.74 32.27 3.8 2-.17 4-.42 5.61-1.59 2.41-1.8 2.94-5.14 3.15-8.13.45-6.36.15-13.3-3.85-18.26" fill="#fff"/><path d="m729.11 400.53c-6.33 2.73-13.71 1.38-20.34.77-7.39-.67-14.78-1.24-22.17-1.86s-14.69-1.64-22-1.47c-6 .13-12.33 1.48-17 5.47a4.82 4.82 0 0 0 -2 3.66 2.52 2.52 0 0 0 2.23 2.28 11.31 11.31 0 0 0 4.82-.6 18.22 18.22 0 0 0 4.77-2.23l-1.42-.55c1.14 7.27 7.69 11.78 14.23 13.91 3.91 1.27 8 1.76 11.93 2.88s7.4 3.34 11.17 4.89c7.35 3 15.41 3.81 23.3 3.63 2 0 4-.15 6-.3a27.43 27.43 0 0 0 5.35-.71c3.32-.94 5.08-3.66 5.7-6.92a37.91 37.91 0 0 0 .27-11.45 20.46 20.46 0 0 0 -4.08-10.53c-.63-.79-1.72.33-1.11 1.12 4 5.21 4.09 12.52 3.42 18.79-.34 3.24-1.41 6.38-4.88 7.28a28.19 28.19 0 0 1 -5.11.6c-1.93.13-3.87.22-5.81.25-7.14.12-14.38-.56-21.13-3-3.53-1.3-6.73-3.33-10.24-4.67s-7-1.78-10.51-2.6c-7.25-1.7-15.34-5.46-16.78-13.61a.91.91 0 0 0 -1.33-.54 15.61 15.61 0 0 1 -3.93 1.93 10.52 10.52 0 0 1 -4.17.73c-2.3-.3-.06-2.53.79-3.22a19.67 19.67 0 0 1 3.66-2.25c5.7-2.71 12.19-2.7 18.35-2.28 13.21.89 26.39 2.2 39.6 3.17 6.35.47 13 1.22 19-1.56.67-.31.09-1.27-.58-1z"/><path d="m686.11 400.52-84.11 20.78a7.37 7.37 0 0 1 -8.69-2.08l-13.58-12.22c-1.32-1.19-2.74-2.43-4.49-2.72a9.24 9.24 0 0 0 -4.08.54c-7.5 2.18-14.93 4.66-22.24 7.43a7.39 7.39 0 0 0 -3.26 2c-1.15 1.41-1.11 3.41-1 5.22 1.84 29.2 8.32 59.29 26.42 82.27 2.27 2.9 4.95 5.8 8.52 6.71 2.94.74 6 0 8.95-.84a120.55 120.55 0 0 0 17.09-6.37 8.23 8.23 0 0 0 3.44-2.42 8.47 8.47 0 0 0 1.1-4.34q.73-10.31 1.72-20.59a5.57 5.57 0 0 1 1-3.14 5.52 5.52 0 0 1 2.92-1.48c31.53-8.7 63.49-17.26 92.17-33a14 14 0 0 0 3.74-2.65c1.74-1.92 2.31-4.61 2.57-7.19a41.23 41.23 0 0 0 -4.79-23.71c-1.49-2.75-2.43-7.86-23.37-2.15"/><path d="m685.93 399.88q-27.48 6.63-54.93 13.31l-27.58 6.72c-2.12.52-4.62 1.48-6.74.51s-3.61-2.82-5.2-4.26l-10.48-9.42a14.72 14.72 0 0 0 -4.53-3.21c-1.94-.71-3.92-.22-5.83.34q-6.55 1.9-13 4.12-3.28 1.13-6.54 2.33a20.81 20.81 0 0 0 -5.25 2.29c-3.15 2.31-2.26 6.78-2 10.14 1.18 15.69 3.68 31.44 8.81 46.35a120 120 0 0 0 9.59 21.28 100.31 100.31 0 0 0 6.48 9.82c2.16 2.87 4.43 5.9 7.55 7.78 3.56 2.14 7.55 1.79 11.41.74a111.81 111.81 0 0 0 12.6-4.27c2-.78 3.89-1.61 5.8-2.5a8 8 0 0 0 4.07-3.26c.87-1.67.87-3.65 1-5.48q.26-3.57.55-7.12c.18-2.29.38-4.58.58-6.86a49 49 0 0 1 .68-6.64c.53-2.29 3.09-2.51 5-3l6.2-1.7c8.41-2.33 16.82-4.68 25.18-7.22 16.51-5 32.86-10.7 48.44-18.16 3.88-1.86 7.78-3.78 11.51-5.94a11.25 11.25 0 0 0 5.69-8.73 41.65 41.65 0 0 0 -3.65-23.45c-1-2.07-2-4.59-4-5.9-3-2-7.32-1.57-10.7-1.12a81.49 81.49 0 0 0 -10.83 2.31.92.92 0 0 0 .49 1.78 76.81 76.81 0 0 1 10.8-2.28 23.66 23.66 0 0 1 6.29-.11 5.79 5.79 0 0 1 4.63 3 42.64 42.64 0 0 1 5.33 17.16c.29 3.67.37 7.88-1 11.37-1.47 3.87-6 5.49-9.4 7.26-14.85 7.7-30.54 13.6-46.45 18.69-8 2.54-16 4.88-24 7.15q-6 1.68-12 3.32c-1.94.54-3.9 1-5.81 1.62a4.79 4.79 0 0 0 -3.37 2.84 23.12 23.12 0 0 0 -.75 5.62c-.2 2.21-.39 4.41-.58 6.62s-.36 4.41-.52 6.62a41.63 41.63 0 0 1 -.59 6.41c-.53 2.2-2.34 3.07-4.24 3.94s-4 1.77-6 2.56a99.1 99.1 0 0 1 -12 4 14.27 14.27 0 0 1 -6.71.44 11.06 11.06 0 0 1 -4.85-2.7 47.46 47.46 0 0 1 -7-8.67 108 108 0 0 1 -10.68-19.9c-5.79-14.07-9-29.1-10.74-44.18-.44-3.81-.77-7.63-1-11.45-.12-1.72-.5-3.91.44-5.47s3.53-2.17 5.21-2.79q6.06-2.25 12.22-4.22 3.2-1 6.4-2c2.07-.62 4.29-1.52 6.36-.45a24.94 24.94 0 0 1 4.77 3.94l5 4.46 5.14 4.63a19.19 19.19 0 0 0 4.46 3.47 8.39 8.39 0 0 0 5.4.28c2.15-.47 4.29-1.06 6.43-1.6l13.28-3.33q26.32-6.58 52.63-13.22l12.79-3.24a.66.66 0 0 0 -.35-1.28z"/><path d="m749 589.35q-12.7 75-26.08 149.95c-.79 4.44-1.79 9.24-5.22 12.17-2.13 1.83-5 2.67-7.15 4.4s-3.67 5.13-1.91 7.31q13.23.44 26.48-.1c2.75-.11 5.62-.28 8-1.65 4.35-2.48 5.78-7.95 6.89-12.83a454.49 454.49 0 0 1 16.5-55.89c5.39-14.71 11.56-29.17 15.63-44.3s6-31.15 2.76-46.47"/><path d="m877.06 578.33c15.88 49.39 31.84 98.95 54.21 145.76 2.86 6 7.76 16.64 9 23.14a11.42 11.42 0 0 1 -1.84 9.5 2.31 2.31 0 0 0 2.4 3.55q6.92-1.46 13.78-3.15c4.44-1.09 9.47-2.77 11.12-7a11 11 0 0 0 .13-7.26c-11.16-34-14.38-58.18-21-93.45-5.93-31.6-25.66-69.23-48.34-91.37"/><path d="m748.49 589.2q-6.93 40.2-14 80.36-3.51 20-7 40.06-1.79 10.07-3.58 20.14c-.58 3.24-1.15 6.47-1.74 9.7a30.11 30.11 0 0 1 -2.17 7.64 12.32 12.32 0 0 1 -5.68 5.64c-2.14 1.15-4.41 2.19-5.86 4.23-1.22 1.71-1.9 4.11-.84 6.07.65 1.19 1.51 1 2.76 1 1.72.05 3.44.08 5.15.11 6.68.09 13.36 0 20-.28a18.53 18.53 0 0 0 7.65-1.54 11.77 11.77 0 0 0 4.84-5c2.53-4.78 3.22-10.54 4.49-15.74q2.31-9.48 5-18.86c3.67-12.65 7.94-25.09 12.62-37.4 9-23.8 19.29-48.52 17-74.54a71 71 0 0 0 -1.35-9.06c-.26-1.22-2.12-.7-1.87.52 5.36 26.59-3.92 52.74-13.3 77.28-4.81 12.59-9.41 25.24-13.3 38.16q-2.86 9.45-5.3 19-1.25 4.91-2.39 9.84a62.34 62.34 0 0 1 -2.1 7.86c-1 2.74-2.68 5.36-5.4 6.66-3.17 1.52-7.08 1.28-10.5 1.38-7.69.24-15.37.22-23.05 0l.68.39c-1.48-2-.17-4.66 1.53-6.13 2-1.69 4.55-2.47 6.63-4 3.75-2.74 5.09-7.31 5.93-11.66 2.32-12.09 4.31-24.25 6.44-36.38q6.5-36.86 12.77-73.76 3.48-20.67 6.93-41.35c.12-.72-1-1-1.1-.31z"/><path d="m876.52 578.48c4.84 15.2 9.67 30.4 14.73 45.53s10.35 30.34 16 45.34c5.59 14.82 11.56 29.51 18.1 43.94 2.81 6.2 5.85 12.3 8.6 18.53 1.33 3 2.59 6.06 3.69 9.16a31 31 0 0 1 2.11 8.56 10.1 10.1 0 0 1 -.68 4.35c-.49 1.21-1.54 2.29-1.78 3.58a3.12 3.12 0 0 0 1.12 3c1.1.89 2.3.67 3.58.4q6-1.27 11.87-2.71a29.68 29.68 0 0 0 8.34-3 9.8 9.8 0 0 0 4.8-6.72c.65-3.71-.83-7.09-1.92-10.56q-3.36-10.65-6.11-21.48c-3.38-13.36-6-26.88-8.47-40.43-2.53-13.86-4.46-28-8.5-41.49a194.48 194.48 0 0 0 -15.78-37.48 179.36 179.36 0 0 0 -22.85-33c-2-2.27-4.13-4.37-6.29-6.49-.73-.71-1.84.41-1.12 1.12a158.77 158.77 0 0 1 23.53 30.17 200.46 200.46 0 0 1 17.73 36.36 162.31 162.31 0 0 1 5.57 18.31c1.63 6.87 2.74 13.86 4 20.8 2.42 13.4 4.77 26.82 7.72 40.12q2.22 10 4.92 19.9 1.41 5.16 3 10.28c.55 1.78 1.1 3.56 1.67 5.34a24 24 0 0 1 1.55 6 8.46 8.46 0 0 1 -4.21 8c-2.7 1.63-5.87 2.31-8.91 3-3.77.91-7.57 1.92-11.4 2.58-1.83.32-2.76-1-1.79-2.57a14.36 14.36 0 0 0 1.71-3.76 16.15 16.15 0 0 0 -.45-8.1 74.38 74.38 0 0 0 -2.91-8.48c-2.21-5.52-4.79-10.87-7.32-16.25-6.65-14.15-12.74-28.55-18.44-43.09-11.36-29-21.12-58.54-30.77-88.11l-3.54-10.87c-.22-.67-1.28-.39-1.07.3z"/><path d="m794.4 314.4a53.25 53.25 0 0 0 -1.24-8c-.31-1.32-.67-2.63-1.07-3.93-.32-1.05-.53-2.43-1.68-2.86-.82-.31-1.38 1-.6 1.42.39.2.54 1 .69 1.34.21.58.42 1.15.61 1.73.36 1.08.67 2.18.95 3.28a51.29 51.29 0 0 1 1.25 7.07c.07.69 1.15.71 1.09 0z"/><path d="m809.66 303.74-21.45 6.11c1.54 6.13-1.49 12.38-4.44 18-7.13 13.55-14.43 27.58-15.55 42.85-.83 11.5 1.9 22.91 3.25 34.35 5.37 45.52-11.55 91.31-36.85 129.53-6.32 9.55-13.24 18.89-17.18 29.63s-4.49 23.45 1.68 33.09c3.7 5.78 9.46 10 15.53 13.16a76.08 76.08 0 0 0 21.06 7.45c4.47.87 9.09 1.36 13.21 3.3 4.89 2.3 8.63 6.43 12.88 9.75a46.35 46.35 0 0 0 34.88 9.21c14.59-2.16 28.08-11.33 42.8-10.21 11.4.86 22.68 7.9 33.6 4.49 13.78-4.3 18.95-22.88 32.64-27.48 7.1-2.39 15.64-.6 21.69-5 7.78-5.72 7.4-19 15.84-23.67 2-1.11 4.33-1.6 6.29-2.78 5-3 6.45-10 4.81-15.67s-5.63-10.25-9.51-14.67c-40.67-46.26-83-94.89-97.33-154.8-3.5-14.64-5.26-29.77-10.61-43.84s-15.13-27.54-29.32-32.54a21.51 21.51 0 0 0 -10.1 5.46" fill="#18c4ff"/><path d="m827.73 313.47c-1-.33-2.12.18-3 .5a20.34 20.34 0 0 0 -2.91 1.27 19.36 19.36 0 0 0 -2.58 1.58c-.45.34-.88.69-1.29 1.06s-1 .62-1.27 1.11a1 1 0 0 0 1.32 1.31c.45-.22.69-.73 1.08-1.05s.77-.59 1.17-.86a26.87 26.87 0 0 1 2.48-1.6 23.42 23.42 0 0 1 2.54-1.18 7.56 7.56 0 0 0 2.75-1.2.57.57 0 0 0 -.25-.94z"/><path d="m867.51 390.87a.56.56 0 0 0 0-1.12.56.56 0 0 0 0 1.12z"/><path d="m734.36 610.92a73.25 73.25 0 0 0 16.64 6.73c5.62 1.49 11.71 1.69 17.07 4.07 5.12 2.27 8.91 6.56 13.26 9.94a46.84 46.84 0 0 0 13.95 7.42 47.4 47.4 0 0 0 15.63 2.4 57 57 0 0 0 16.24-3c10.42-3.3 20.88-8.45 32.09-7.68 10.94.76 21.49 7.45 32.63 4.86 8.29-1.92 13.76-8.85 18.9-15.09a59 59 0 0 1 8.68-9.11 23.67 23.67 0 0 1 12.36-4.83c4.91-.57 10.15-.55 14.59-3 3.66-2 5.93-5.57 7.64-9.28s2.93-7.57 5.15-11a13.12 13.12 0 0 1 4.23-4.22c2.36-1.39 5.15-1.85 7.38-3.5 3.47-2.57 5-6.93 5.06-11.13.06-5.11-2.3-9.83-5.23-13.89a67.73 67.73 0 0 0 -5.14-6.21c-.85-.92-2.15.43-1.36 1.36 3.51 4.18 7.38 8.34 9.12 13.64 1.38 4.19 1.16 9.28-1.59 12.9-1.62 2.13-3.9 3-6.32 4a15.41 15.41 0 0 0 -5.36 3.24c-2.82 2.74-4.37 6.47-5.87 10s-3 7.45-5.8 10.28c-3.53 3.56-8.59 4.13-13.34 4.57s-9.25 1-13.39 3.32a36.16 36.16 0 0 0 -8.81 7.6c-5.26 5.93-9.79 13.3-17 17-9.84 5-20.7-.39-30.55-2.48a39.92 39.92 0 0 0 -15.89-.19 102.71 102.71 0 0 0 -15.33 4.65 106.08 106.08 0 0 1 -15.69 4.71 44.78 44.78 0 0 1 -16.16.06 45.91 45.91 0 0 1 -14.8-5.4c-4.7-2.71-8.45-6.5-12.7-9.8a27.24 27.24 0 0 0 -6.51-3.9 40.85 40.85 0 0 0 -8.3-2.15 97.6 97.6 0 0 1 -16.67-4.29 82.13 82.13 0 0 1 -8.24-3.55c-.64-.32-1.21.62-.57 1z"/><path d="m783.29 327.54c-8 14.29-15.72 29.56-16.06 46.29-.19 8.86 1.47 17.61 2.72 26.35a153.61 153.61 0 0 1 1.6 24.62 172.45 172.45 0 0 1 -7.88 47.48 231.18 231.18 0 0 1 -19.31 44.55c-4 7.06-8.24 13.9-12.75 20.61s-9.22 13.55-12.79 20.91a48.53 48.53 0 0 0 -2.31 5.58c-.41 1.19 1.41 1.63 1.86.51a116.36 116.36 0 0 1 11.79-21.64c4.51-6.74 9-13.45 13.16-20.45a235.7 235.7 0 0 0 20.23-43.74 182.44 182.44 0 0 0 9.45-46.44 148.9 148.9 0 0 0 -.34-23.89c-.83-8.78-2.69-17.43-3.45-26.22a66.94 66.94 0 0 1 2.52-25.41c2.43-8 6.13-15.54 9.79-23.06q1.34-2.74 2.7-5.48c.32-.65-.62-1.21-1-.57z"/><path d="m809.66 304.31a.57.57 0 0 0 0-1.13.57.57 0 0 0 0 1.13z"/><path d="m772.94 263.07a30.74 30.74 0 0 1 -2.85 14.26c-.7 1.5-1.36 3.63 0 4.5a7.49 7.49 0 0 0 1.33.47c1.92.73 2.43 3.14 2.73 5.16.65 4.32 1.92 9.05 5.63 11.35s8.4 1.36 12.38-.25c10.92-4.41 20-14.62 20.49-26.4a31.73 31.73 0 0 0 -4-15.83c-1.93-3.63-4.46-7.07-7.95-9.23-6.3-3.91-14.82-2.88-21 1.16-4.25 2.77-7.46 9.79-6.75 14.81" fill="#fff"/><path d="m813.25 272.16a30.51 30.51 0 0 0 -3.45-15.47c-2.11-4.19-5-8.26-9.16-10.62a19.25 19.25 0 0 0 -13.22-1.85c-4.22.82-8.56 2.79-11.28 6.22s-4.64 8.34-3.81 12.8a.64.64 0 0 0 1.25-.17 17.24 17.24 0 0 1 3.17-10.63c2.28-3.34 5.93-5.27 9.78-6.28a18.11 18.11 0 0 1 12.39.92c4 1.94 6.75 5.53 8.81 9.32a33.46 33.46 0 0 1 4.41 15.76.56.56 0 0 0 1.11 0z"/><path d="m772.39 263.07a33.47 33.47 0 0 1 -2.67 13c-.6 1.4-1.41 2.86-1.24 4.44a2.71 2.71 0 0 0 .72 1.62c.61.63 1.39.65 2.13 1 1.51.76 1.79 2.88 2 4.37a32.41 32.41 0 0 0 1.12 5.08c1 3.14 2.87 6.09 6 7.48 3.83 1.72 8.43.79 12.07-1 .65-.31.19-1.37-.49-1.16-3.36 1-7.13 2.12-10.57.74-3.18-1.27-4.8-4.44-5.66-7.57-.72-2.65-.55-6-2.3-8.29a4 4 0 0 0 -1.46-1.2c-.75-.36-1.77-.32-1.88-1.33-.17-1.53 1-3.21 1.53-4.58a29 29 0 0 0 1.8-12.65.56.56 0 0 0 -1.11 0z"/><path d="m775.53 272.06a4.08 4.08 0 0 1 .46.47l-.11-.15a1.28 1.28 0 0 1 .15.25l-.08-.18a.83.83 0 0 1 .06.21v-.21a1.31 1.31 0 0 1 0 .28v-.21a.83.83 0 0 1 0 .15l.08-.2-.06.12.12-.17-.05.06.81-.21.2.08h-.1l.17.13-.1-.11.13.17-.07-.11.09.2a.88.88 0 0 1 0-.15v.23a.57.57 0 0 1 0-.13v.23s0-.05 0-.07a.87.87 0 0 0 -1.28-1 .82.82 0 0 0 -.39.52 1.38 1.38 0 0 0 0 .64 1.11 1.11 0 0 0 .16.39 1.33 1.33 0 0 0 .8.61.82.82 0 0 0 .44 0 .81.81 0 0 0 .37-.21 1.33 1.33 0 0 0 .3-.53.45.45 0 0 0 0-.11c0-.1 0-.21 0-.31a1.31 1.31 0 0 0 -.26-.79 1.67 1.67 0 0 0 -.28-.31 1.91 1.91 0 0 0 -.34-.24 2.9 2.9 0 0 0 -.64-.24.57.57 0 0 0 -.63.26.57.57 0 0 0 .08.68z"/><path d="m794 268.92a1.27 1.27 0 0 0 -1 .42 1.89 1.89 0 0 0 -.44 1.07 2.57 2.57 0 0 0 .35 1.84.61.61 0 0 0 .43.28.57.57 0 0 0 .5-.16 1.06 1.06 0 0 0 -.25-1.65.63.63 0 1 0 -.48 1.15h-.09l-.07-.05v-.07s-.07-.16 0 0 0 .12 0-.06v-.07s0 0 0-.05c0 .05 0 0 0-.06h.84s.07.09 0 0a.25.25 0 0 1 0-.07.16.16 0 0 1 0-.07c-.06-.11 0 .09 0 0a1.71 1.71 0 0 1 -.09-.3s0-.05 0-.08 0 .13 0 0 0-.11 0-.16a2 2 0 0 1 0-.35v-.08s0-.11 0 0 0 0 0 0 0-.06 0-.09a1 1 0 0 1 0-.16c0-.06 0 .09 0 0a.16.16 0 0 0 0-.07c0-.07 0 0 0 0l.05-.06.06-.05s-.09.06 0 0 .11-.05 0 0 0 0 0 0 .1 0 0 0 0 0 0 0a.55.55 0 1 0 0-1.09z"/><path d="m777.82 264.69h-.08l.46.27c-.28-.41-.75-.37-1.2-.38h-1c-.66 0-1.33-.05-2 0a.74.74 0 0 0 0 1.48c.66 0 1.33 0 2-.08l1-.05c.44 0 .94 0 1.2-.4l-.32.24h.12a.52.52 0 0 0 .37-.57.54.54 0 0 0 -.51-.46z"/><path d="m779.41 286.79a5.9 5.9 0 0 0 1.22-1.32 5.24 5.24 0 0 0 .41-.73 1.87 1.87 0 0 0 .28-1.23.71.71 0 0 0 -1.17-.31 2.48 2.48 0 0 0 -.37 1 1.18 1.18 0 0 0 -.07.2.67.67 0 0 0 -.07.18c0-.05.05-.13 0 0v.08a1.14 1.14 0 0 1 -.1.19 3.72 3.72 0 0 1 -.19.34l-.11.16c-.08.11.06-.07 0 0l-.07.09a4.39 4.39 0 0 1 -.57.57.59.59 0 0 0 0 .83.59.59 0 0 0 .83 0z"/><path d="m788.46 270.89a10.41 10.41 0 0 0 -1.5-6.37 19.62 19.62 0 0 0 -2.26-2.3c-2.44-2.66-2.17-6.78-1.53-10.34a49.16 49.16 0 0 1 -9.46 7.1c-1.65 1-3.71 1.83-5.4.93a3.84 3.84 0 0 1 -1.84-3.47 7.65 7.65 0 0 1 1.33-3.86 15.58 15.58 0 0 1 6.49-5.76c-1.95 1-4.75 1.9-6 .1s.43-4.07 2.15-5.32c5.05-3.68 11.51-4.94 17.76-5 4 0 8.4.65 10.82 3.8a2.86 2.86 0 0 0 1.24 1.15 3.21 3.21 0 0 0 1.83-.3c2.25-.7 4.67.32 6.64 1.61a24.49 24.49 0 0 1 10.8 17.69c.35 3.3 0 6.65.61 9.91 1.22 6.63 6.14 12 11.58 16 2.73 2 5.76 3.9 7.36 6.89s1 7.5-2.21 8.7a2.31 2.31 0 0 0 -.63.31c-.47.41-.35 1.15-.24 1.76a9.32 9.32 0 0 1 -13.31 10 10.18 10.18 0 0 1 -18.46-.79c-1.08 2-4.09 2.31-5.94 1a7.07 7.07 0 0 1 -2.56-6 24.48 24.48 0 0 1 1.51-6.61c2.07-6.59 3.33-13.67 1.75-20.4-.55-2.33-3.13-2.94-3-5.33.06-1.37 2.15-4.4 2.21-5.77s-1-2.89-2-3.92c-2.19-2.46-5.2.09-6.1 2.55a5.11 5.11 0 0 1 -.82 1.69c-.39.41-.45.8-.81.38"/><path d="m789 271a9.41 9.41 0 0 0 -2.79-8.61 7.41 7.41 0 0 1 -2.55-4.86 19.62 19.62 0 0 1 .33-5.46.86.86 0 0 0 -1.42-.83 49.17 49.17 0 0 1 -6.3 5.13c-1.82 1.24-5.22 4-7.56 2.82-2.65-1.37-1.1-5 .11-6.74a15 15 0 0 1 5.88-5l-.82-1.39c-1.3.68-5.66 2.23-5.19-.86.35-2.39 3.42-3.94 5.33-4.88a32.25 32.25 0 0 1 14.88-2.92 16 16 0 0 1 6.67 1.3 7.64 7.64 0 0 1 2.48 1.85c.69.78 1.19 1.7 2.32 1.85s2-.51 3.11-.54a7.85 7.85 0 0 1 4.07 1.28 21.94 21.94 0 0 1 5.4 4.58 23.53 23.53 0 0 1 5.6 12.6c.32 2.81.11 5.65.4 8.46a20.61 20.61 0 0 0 1.83 6.68 30.17 30.17 0 0 0 8.68 10.54c3.28 2.64 8.5 5.1 9.34 9.65.35 1.9-.09 4.34-1.92 5.34-1 .52-1.77.73-2 1.95s.26 2.27.17 3.41a8.43 8.43 0 0 1 -11.92 6.93 1 1 0 0 0 -1.35.35 9.2 9.2 0 0 1 -16.76-.79c-.3-.71-1.35-.57-1.7 0-1.2 2-4 1.5-5.34-.08-1.68-2-1.49-4.91-.91-7.31.67-2.75 1.66-5.41 2.28-8.18a43.13 43.13 0 0 0 1.13-8.23 26.24 26.24 0 0 0 -.75-7.95 5.67 5.67 0 0 0 -1.21-2.17 7.79 7.79 0 0 1 -1.68-2.12c-.56-1.57 1.1-3.62 1.67-5 .75-1.86.21-3.47-.95-5.05-1.35-1.82-3.17-2.93-5.36-1.72a6.55 6.55 0 0 0 -2.24 2.2c-.39.6-.93 2.89-1.53 3.09l.79.21-.22-.18c-.83-.64-2 .51-1.16 1.16 1.9 1.48 2.7-2 3.35-3.15a4.27 4.27 0 0 1 2.52-2.18c1.44-.28 2.48 1.28 3.08 2.37 1.12 2-.41 3.8-1.21 5.68a4.09 4.09 0 0 0 .64 4.63 10.38 10.38 0 0 1 1.67 2 12.64 12.64 0 0 1 .81 4.52 35.06 35.06 0 0 1 -.63 9.14 77.16 77.16 0 0 1 -2.36 8.67 14.87 14.87 0 0 0 -.8 7.55 6.62 6.62 0 0 0 4.46 5.19 5.06 5.06 0 0 0 5.65-2.09h-1.7a11.15 11.15 0 0 0 20.16.79l-1.35.35a10.45 10.45 0 0 0 13.29-3.66 10.56 10.56 0 0 0 1.55-6.93 3.74 3.74 0 0 1 -.13-.87c.09-.55 0-.24.37-.52s.77-.36 1.11-.6a5.81 5.81 0 0 0 1.89-2.36c2.1-4.73-1.06-9.08-4.67-11.9-4.32-3.36-8.76-6.32-11.77-11a19 19 0 0 1 -2.95-8c-.36-3.12-.09-6.28-.52-9.39a25.29 25.29 0 0 0 -6.63-13.76 21.49 21.49 0 0 0 -6.21-4.75 9.5 9.5 0 0 0 -3.62-1 6.34 6.34 0 0 0 -1.84.2 7.74 7.74 0 0 1 -.93.3c-.86.11-.94-.17-1.37-.7-3.29-4-8.8-4.38-13.65-4.12a35.85 35.85 0 0 0 -9.25 1.63 20.6 20.6 0 0 0 -7.83 4.24c-1.64 1.58-2.93 4.37-.91 6.2 1.84 1.67 4.72.56 6.6-.42.92-.48.11-1.84-.82-1.39a16.45 16.45 0 0 0 -6.88 6.24c-1.4 2.33-2.11 5.67.18 7.73s5.79.32 8.07-1.08a51.9 51.9 0 0 0 8.52-6.53l-1.42-.82c-.58 3.26-1 7 .83 10 .94 1.55 2.56 2.45 3.43 4a9.37 9.37 0 0 1 1.28 5.24.57.57 0 0 0 1.15.04z"/><g fill="#fff"><path d="m776.43 354.51c2.18 0 3.63 1.74 4.25 3.68a19 19 0 0 1 .66 3 7.11 7.11 0 0 1 0 3.4 8.62 8.62 0 0 1 -3.92 4.23 7.89 7.89 0 0 1 -5.45 1c-1.06-.21-1.51 1.41-.45 1.63a9.59 9.59 0 0 0 6.74-1.2c2-1.17 4.15-3.17 4.73-5.5a9.77 9.77 0 0 0 -.15-4 15 15 0 0 0 -1-3.85c-.94-2.06-3-4-5.41-3.63-.77.1-.83 1.24 0 1.23z"/><path d="m798.05 337.32a8.5 8.5 0 0 0 -6.73 6.06 8 8 0 0 0 2.95 8.53 8.76 8.76 0 0 0 4.31 1.78 9.79 9.79 0 0 0 5.25-1.07c3.26-1.47 6.32-4.48 5.89-8.35s-4.43-5.66-7.83-6.38c-.91-.2-1.29 1.19-.38 1.39 2.37.53 5.33 1.49 6.39 3.92 1.34 3.07-1.11 6.06-3.64 7.5s-5.61 2.12-8.34.47a6.74 6.74 0 0 1 -3.35-6.59 7.45 7.45 0 0 1 5.8-6.13c.75-.14.41-1.24-.32-1.13z"/><path d="m787.3 327.73c2.6 1.44 6.15.35 8-1.84a4.6 4.6 0 0 0 1.16-3.9 4.4 4.4 0 0 0 -2.18-2.79 8.55 8.55 0 0 0 -4.09-1 .75.75 0 0 0 0 1.5c1.68 0 4 .51 4.77 2.21 1 2.14-1.3 4.22-3.1 4.91a4.84 4.84 0 0 1 -4 0c-.62-.32-1.17.6-.55 1z"/><path d="m816.2 323c.62 3.94 5.46 6.07 9 5.82 3.84-.26 7.27-3.35 7.2-7.34a.74.74 0 0 0 -1.44-.19c-.06.26-.12.52-.17.79a.71.71 0 0 0 1.36.38c.08-.26.15-.52.22-.79l-1.43-.19c.07 3.31-2.83 5.76-6 6s-7.12-1.42-7.73-4.74c-.13-.71-1.19-.4-1.08.3z"/><path d="m834.67 344.66c-3 .19-6.09 1.44-7.68 4.17a6.35 6.35 0 0 0 .79 7.59 7.31 7.31 0 0 0 7.85 1.85c3-1 4.91-3.77 6.39-6.47a3.92 3.92 0 0 0 -.37-4.56c-.85-1.15-2.27-2.86-3.87-2a.72.72 0 0 0 .56 1.3c1-.21 2 1.35 2.39 2.05.72 1.23.11 2.21-.55 3.31-1.24 2.06-2.67 4.14-5.06 4.94a5.88 5.88 0 0 1 -6-1.18 5.07 5.07 0 0 1 -1.12-5.86c1.22-2.56 4-3.79 6.67-4 .71-.06.73-1.17 0-1.12z"/><path d="m855.88 357a9.87 9.87 0 0 0 -3.46 9.6 10.17 10.17 0 0 0 6.64 7.34c.82.29 1.34-1 .59-1.39l-.78-.42c-.86-.47-1.63.85-.77 1.32l.78.42.58-1.4a8.72 8.72 0 0 1 -5.6-6.27 9 9 0 0 1 2.79-8.43c.53-.49-.23-1.2-.77-.77z"/><path d="m813.16 367.61c-4.33-.09-9 1.94-11.16 5.87a6.78 6.78 0 0 0 -.61 5.59 10.89 10.89 0 0 0 4.11 4.73 12.35 12.35 0 0 0 12.4 1.25 9.85 9.85 0 0 0 5.56-10.05c-.59-4.34-4.88-8-9.34-7a.74.74 0 0 0 .2 1.44 6.9 6.9 0 0 1 7.37 4.92 8.1 8.1 0 0 1 -3.79 8.88 10.43 10.43 0 0 1 -10.24 0 12.3 12.3 0 0 1 -4.08-3.4 5 5 0 0 1 -.59-5c1.56-4 6.11-6.07 10.17-6.09a.58.58 0 0 0 0-1.16z"/><path d="m774.69 396.81a5.9 5.9 0 0 1 6.2 1.05 7.85 7.85 0 0 1 2.55 6 9.39 9.39 0 0 1 -2 5.54 9.7 9.7 0 0 1 -2.17 2.07 10 10 0 0 1 -1.27.73 9 9 0 0 0 -1.45.65.74.74 0 0 0 .37 1.36c1.17.08 2.58-.87 3.48-1.53a11.47 11.47 0 0 0 2.54-2.57 10.68 10.68 0 0 0 2.06-7 9.2 9.2 0 0 0 -3.64-6.76 7.18 7.18 0 0 0 -7.29-.55c-.69.34-.09 1.31.59 1z"/><path d="m809.29 409.56c-9.36-1.44-16 9.75-11.75 17.76 2.19 4.14 7.13 5.47 11.49 4.53a14.26 14.26 0 0 0 9.49-7.36 10.6 10.6 0 0 0 1.05-7.46 6.33 6.33 0 0 0 -4.79-4.69c-1-.16-1.47 1.31-.43 1.57 4.35 1.07 4.42 6.24 2.78 9.59a12.71 12.71 0 0 1 -7.66 6.48c-3.49 1-7.84.48-10-2.73-2-2.94-1.92-6.89-.58-10.08a10.11 10.11 0 0 1 10.28-6.46c.65.08.8-1 .15-1.15z"/><path d="m843.16 391.62a9 9 0 0 0 -9.58 4.17 9.45 9.45 0 0 0 -1.52 5.46c.14 2.11 1.44 3.67 3 5a28.57 28.57 0 0 0 5.14 3.82 5.41 5.41 0 0 0 5.22-.16 16.56 16.56 0 0 0 4.6-4 7.89 7.89 0 0 0 2.15-4.94c0-2.23-1.32-4.28-2.56-6-1.1-1.57-2.51-3.11-4.58-3.07a.85.85 0 0 0 0 1.69c1.37.16 2.36 1.35 3.09 2.4a12.15 12.15 0 0 1 2.16 4.08c.68 3.05-2.27 5.82-4.43 7.52-1.21.95-2.76 1.8-4.32 1.25a16.29 16.29 0 0 1 -4.28-2.91 10 10 0 0 1 -3.24-3.46 6.34 6.34 0 0 1 .38-4.9 7.94 7.94 0 0 1 8.48-4.82c.73.13 1-1 .31-1.11z"/><path d="m869.85 418.3c-3.82 2.15-6.1 7.05-3.64 11 2.36 3.83 7.8 7.64 12.24 4.85a.82.82 0 0 0 .16-1.27c-.2-.24-.41-.47-.63-.7a.74.74 0 0 0 -1.16.9c.17.26.34.52.53.78l.29-1.1c-3.66 2.23-8.14-1.18-10.06-4.26-2.07-3.32-.08-7.21 2.87-9.21a.6.6 0 0 0 -.6-1z"/><path d="m847.11 434.12a12.1 12.1 0 0 0 -12.86 4.23 10.59 10.59 0 0 0 -2.36 7 8.13 8.13 0 0 0 3.35 5.54c3.73 2.95 9 5.12 13.84 4.38a10 10 0 0 0 6.07-3.28 15.68 15.68 0 0 0 3.59-6.58c1.22-5.7-3.49-10.2-8.58-11.58a.88.88 0 0 0 -.47 1.69c3.84 1 7.54 3.94 7.49 8.26 0 2.07-1.17 4-2.27 5.65a8.77 8.77 0 0 1 -4.94 3.87c-4.05 1.15-8.29-.47-11.77-2.5a9.74 9.74 0 0 1 -4.11-3.88c-1-2-.36-4.38.63-6.25a10.84 10.84 0 0 1 12.09-5.41.57.57 0 0 0 .3-1.1z"/><path d="m774.94 445.9c2.42-.23 3.84 1.89 4.73 3.82s1.71 4.33.76 6.47c-1.83 4.17-6.75 4.6-10.63 5.43-.79.17-.63 1.5.19 1.43 4.63-.37 10.61-2 12.07-7.07.73-2.54-.29-5.21-1.45-7.45s-3.08-4.12-5.67-3.78c-.72.09-.75 1.22 0 1.15z"/><path d="m810.13 461.8c-5.46-1.95-9.81 2.88-11.7 7.44-1.13 2.74-2 5.83-1.3 8.81.62 2.72 2.6 5.08 4.63 6.91 4.09 3.66 9.51 5 14.25 1.7 4.1-2.85 8.06-8.19 6.92-13.43-.66-3-2.76-5.48-4.86-7.6-1.72-1.74-4.73-4.12-6.93-1.59-.74.85.46 2.08 1.25 1.25 1.69-1.77 4.41 1.68 5.46 2.83a12.85 12.85 0 0 1 3.27 5.41c1.09 4.32-2.43 8.91-5.7 11.36a9 9 0 0 1 -5.74 2 10.76 10.76 0 0 1 -6-2.62 15.42 15.42 0 0 1 -4.37-5.23c-1.06-2.34-.7-4.95.05-7.32 1.4-4.45 4.93-10.34 10.5-8.76a.58.58 0 0 0 .31-1.12z"/><path d="m765.83 488.5c2.6-.21 3.11 2.93 3.23 4.86a10.09 10.09 0 0 1 -.94 5.89c-1.08 1.8-3.19 2.76-5 3.63a13.07 13.07 0 0 1 -6.76 1.5c-1.12-.09-1.12 1.67 0 1.75a15.42 15.42 0 0 0 8.18-2.07c2.27-1.17 4.47-2.57 5.43-5.05a14.32 14.32 0 0 0 .31-7.52c-.42-2.31-2-4.53-4.6-4.17-.67.09-.52 1.24.16 1.18z"/><path d="m788.75 511.49c-5.41-.38-9.78 4.13-11.83 8.73a8.34 8.34 0 0 0 .25 7.81 15.69 15.69 0 0 0 5.27 5.65 14.16 14.16 0 0 0 14.61.66 12.8 12.8 0 0 0 6.63-12.69 13.73 13.73 0 0 0 -3.49-7.66c-1.78-1.92-5.09-3.63-7.52-1.86a.83.83 0 0 0 .84 1.43c2.25-1 4.51.54 5.89 2.27a12 12 0 0 1 2.49 5.94 11 11 0 0 1 -5.29 10.75 12.27 12.27 0 0 1 -12 .39c-3.75-1.9-8-6.33-6.7-10.89s5.62-9.6 10.82-9.38c.75 0 .74-1.1 0-1.15z"/><path d="m852.3 491.29c-4.89 1-10.42 2.53-13.22 7.07a12 12 0 0 0 1.1 13.74 13 13 0 0 0 13.32 3.9 19.53 19.53 0 0 0 7.24-4.29 12.84 12.84 0 0 0 4.32-6.68c1-4.64-1.68-10.82-6.58-12.09a.81.81 0 0 0 -.61 1.47 10.5 10.5 0 0 1 4.26 3.69 9.29 9.29 0 0 1 1.36 5.63c-.42 4.6-5.08 8.35-9 10.08a11.39 11.39 0 0 1 -12.27-2 10.47 10.47 0 0 1 -2.13-12c2.31-4.72 7.85-6.22 12.55-7.31.74-.17.43-1.28-.31-1.13z"/><path d="m882.3 462c-5.08-.59-8.86 3.8-10.93 7.9a7.93 7.93 0 0 0 -.6 7 15.93 15.93 0 0 0 4.57 5.7 10.15 10.15 0 0 0 11.71.74 13.16 13.16 0 0 0 6.19-11.14 18.45 18.45 0 0 0 -1.41-7.81c-.94-2.21-3.11-4.18-5.6-3-.9.43-.26 1.92.68 1.62 3.84-1.25 4.56 6.75 4.5 9a11.39 11.39 0 0 1 -4.76 9.45 8.52 8.52 0 0 1 -9.44.36 15.57 15.57 0 0 1 -4.07-4.18 6.17 6.17 0 0 1 -.83-5.88c1.47-4.14 5.12-9 10-8.54.77.07.75-1.1 0-1.19z"/><path d="m902.85 512.7a16.19 16.19 0 0 0 -14.19 4.19 11.6 11.6 0 0 0 -3.65 7 8.67 8.67 0 0 0 2.87 7.09 26.7 26.7 0 0 0 7 4.58 15 15 0 0 0 8.64 1.71c4.92-.73 8.7-4.91 10.1-9.52 1.77-5.8-.23-13.33-6.62-15.19-1.07-.32-1.46 1.26-.45 1.64 9.49 3.54 6.6 18.48-2.15 21-4.74 1.39-9.89-1.49-13.62-4.2-1.77-1.29-3.48-3-3.93-5.21-.51-2.49.68-5.07 2.23-7a14.64 14.64 0 0 1 13.49-5c.73.12 1.05-1 .31-1.12z"/><path d="m932.5 514.54c.11 2.82-.4 6.11 1.44 8.52s5.18 2.6 8 2.52l-.21-1.57c-.48.12-1 .27-1.41.4a.77.77 0 0 0 .41 1.49c.47-.11 1-.22 1.42-.35a.8.8 0 0 0 -.15-1.55c-2.36.1-5.44.21-7-1.89s-1.1-5.12-1.26-7.55c0-.75-1.21-.76-1.18 0z"/><path d="m839.71 541.57c-5.64-1.07-11.92.84-15.19 5.77s-2.82 11.66 1.48 15.66c4.74 4.41 12.23 5.17 18.41 4.56 2.78-.27 5.63-1 7.67-3a10.08 10.08 0 0 0 2.69-8c-.29-3.62-2.13-6.87-4.3-9.7-1.89-2.49-4.6-5.2-8-4.33-1 .26-.58 1.75.44 1.56 2.86-.51 5.09 2.27 6.58 4.31a18 18 0 0 1 3.46 7.25 8.8 8.8 0 0 1 -1.8 7.42c-1.71 1.87-4.28 2.59-6.73 2.84-5.23.53-11.47.09-15.91-3a10.61 10.61 0 0 1 -3.51-13.36c2.49-5.34 8.75-7.76 14.37-6.84.74.12 1.07-1 .31-1.14z"/><path d="m782.84 561.21c-3.58-3.12-9.48-2-13.36 0-4.5 2.31-7 7.12-5.14 12.06 3.83 10 19.89 11.56 25.74 2.74a10.78 10.78 0 0 0 1.72-7.8c-.47-2.68-2.21-5.7-4.75-6.87-.77-.36-1.71.61-1 1.26 1.63 1.45 3.07 2.83 3.72 5a8.59 8.59 0 0 1 -.54 6.2c-1.94 4.06-6.22 6.19-10.6 6.22s-9-1.7-11.57-5.27a8 8 0 0 1 1.81-11.41c3.33-2.39 9.6-4.18 13.1-1.26.59.48 1.43-.33.85-.84z"/><path d="m735.65 539.85c3.45 4.8 10.73 1.72 13.13-2.57a7.67 7.67 0 0 0 -.22-7.63 13.17 13.17 0 0 0 -6.43-5.22.82.82 0 1 0 -.63 1.51 12.18 12.18 0 0 1 5.38 3.92 6.41 6.41 0 0 1 .85 6.37c-1.68 3.6-8 7.07-11.06 3-.44-.6-1.47 0-1 .6z"/><path d="m729.22 585.12c-.21-4.44 5.34-5.73 8.79-5a10.62 10.62 0 0 1 7.59 5.79 10 10 0 0 1 -.6 9.09 9 9 0 0 1 -3.54 3.36 12.36 12.36 0 0 1 -6.42 1.39c-2.31-.22-3.73-2.54-4.72-4.41a18.47 18.47 0 0 1 -2-6.77c-.11-1.12-1.88-1.15-1.78 0a19.74 19.74 0 0 0 1.92 7c1 2 2.36 4.28 4.41 5.33 2.2 1.14 5.14.55 7.39-.17a11.15 11.15 0 0 0 5.36-3.55 11.78 11.78 0 0 0 2-11.09 12.09 12.09 0 0 0 -9-7.53c-4.36-.87-10.91 1-10.57 6.51 0 .77 1.26.78 1.22 0z"/><path d="m791 624.7a7.37 7.37 0 0 1 1.39-8.36 8.6 8.6 0 0 1 8.46-2c5.85 1.78 10 10.49 4.78 15.15-3.16 2.84-7 1-9.94-1.15-.74-.53-1.67.68-1 1.26 3 2.5 7.16 4.22 10.8 2.06 3.45-2.05 4.67-6.22 3.83-10a12.14 12.14 0 0 0 -6.86-8.42 10.13 10.13 0 0 0 -10.21 1.23 8.7 8.7 0 0 0 -2.25 10.83c.36.67 1.37.08 1-.6z"/><path d="m847.74 589.44c-5.09-1.38-9.12 3.1-9.92 7.74-.87 5 .38 11 4.94 13.84 4.74 3 10.63 1.93 15.26-.69s8.37-6.7 7.9-12.22a10.88 10.88 0 0 0 -11.48-9.91c-1.09.08-1.11 1.76 0 1.72a9.28 9.28 0 0 1 9.5 6.7c1.21 4.6-1.3 8.61-5 11.16s-8.45 4.29-13 2.92c-4.66-1.43-6.65-5.64-6.82-10.25a11.17 11.17 0 0 1 2-7.43 6.36 6.36 0 0 1 6.27-2.45.59.59 0 0 0 .31-1.13z"/><path d="m898.42 559.2c-3.82 1.83-7.34 5.09-8.14 9.41a9.17 9.17 0 0 0 4.83 10.2 15.22 15.22 0 0 0 13.2-.61 10.45 10.45 0 0 0 5.13-10.4 10.2 10.2 0 0 0 -9.31-8.65c-1.07-.08-1 1.49 0 1.62a9 9 0 0 1 7.42 6.4 8.74 8.74 0 0 1 -3.5 9.21 13.81 13.81 0 0 1 -11.17 1.41 7.6 7.6 0 0 1 -5.28-8.23c.37-4.3 3.75-7.52 7.4-9.36.67-.33.09-1.32-.58-1z"/><path d="m962.07 555a10.29 10.29 0 0 0 -10.07 9.19 10.61 10.61 0 0 0 2 7.06 7.32 7.32 0 0 0 2.69 2.47c1 .4 2.31-.51 1.44-1.54a.75.75 0 0 0 -1.28.52v.13l.23-.56c.17-.15-.73-.78-.86-.9a8.16 8.16 0 0 1 -.92-1 9.09 9.09 0 0 1 -1.3-2.39 8.89 8.89 0 0 1 -.23-5.35 9 9 0 0 1 8.22-6.37.6.6 0 0 0 0-1.19z"/><path d="m890.75 624.49c-.89-1.76.34-3.89 1.35-5.33a13.13 13.13 0 0 1 4-3.66c3.3-2 7.33-2.06 10.69-3.93.81-.46.09-1.68-.73-1.25a34.71 34.71 0 0 1 -6.33 2.15 17 17 0 0 0 -5.58 2.68c-2.63 2-6.37 6.43-4.39 9.94.38.66 1.36.07 1-.6z"/><path d="m942.06 596.39 3.92-3.83a.68.68 0 1 0 -1-1l-3.8 3.95a.61.61 0 0 0 0 .84.62.62 0 0 0 .85 0z"/><path d="m752.32 411c-6-.15-63.7 9.45-69.58 10.41s-11.72 3.1-16.2 7c-2.32 2-4.31 4.68-4.7 7.74s1.22 6.51 4.17 7.44l1.59-4.32a21 21 0 0 0 -1.29 12.73c.29 1.39 1.08 3 2.49 3 1.14 0 2-1.16 2.26-2.25a13.32 13.32 0 0 1 .94-3.28c-.46 1.5-.86 3.31.18 4.47s3.14.89 4.32-.2a9.16 9.16 0 0 0 2.15-4.24 7 7 0 0 0 -1 3.6c.12 1.25 1.21 2.51 2.45 2.31a3.22 3.22 0 0 0 1.65-1 17.19 17.19 0 0 0 3.9-6 7.21 7.21 0 0 0 -1.55 3.59c0 1.32 1 2.77 2.3 2.66a3.33 3.33 0 0 0 2-1.32 21.43 21.43 0 0 0 4.62-8.49 5.39 5.39 0 0 1 .78-1.94c1.06-1.38 3.14-1.24 4.86-1 22.74 3.4 47.16 4.69 69.95 1 4.94-.8 11.78-1.44 15.86-4.69"/></g><path d="m688.86 453.72a21.8 21.8 0 0 0 4.83-8.29 5.29 5.29 0 0 1 .93-2.24 2.93 2.93 0 0 1 2.07-.66 31.45 31.45 0 0 1 5 .61c7.07 1 14.16 1.76 21.28 2.24a205.14 205.14 0 0 0 43.61-1.23c3.27-.48 6.58-.91 9.81-1.61a20.66 20.66 0 0 0 8.74-3.69c.78-.63-.26-2-1.08-1.4-4.7 3.46-11 3.85-16.58 4.71a183.29 183.29 0 0 1 -22.2 2 258.81 258.81 0 0 1 -44.06-2.74c-2.47-.34-6.31-1.45-8.08 1-1 1.44-1.17 3.54-1.88 5.16a23.16 23.16 0 0 1 -3.23 5.27c-.47.57.31 1.39.83.83z"/><path d="m752.32 410.45c-4.28-.2-8.76.72-13 1.28-7.55 1-15.08 2.17-22.59 3.37s-14.9 2.38-22.35 3.59c-4.57.74-9.19 1.35-13.72 2.27-6.39 1.31-13.19 4.19-17.27 9.49a10.63 10.63 0 0 0 -2.41 8.17 7.44 7.44 0 0 0 4.77 5.93 1 1 0 0 0 1.14-.65l1.58-4.32c.36-1-1.27-1.67-1.68-.71a22.25 22.25 0 0 0 -1.79 10.47c.19 2.45.66 6.35 3.79 6.54 1.16.07 1.13-1.68 0-1.78-2.11-.21-2-5.1-2-6.54a20.34 20.34 0 0 1 1.61-7.76l-1.68-.71-1.59 4.32 1.13-.65c-2.5-.87-3.75-3.69-3.52-6.21.25-2.84 2.14-5.3 4.18-7.16 4.45-4.05 10.19-6.15 16.05-7.14 3.95-.67 7.91-1.31 11.87-2 14.37-2.35 28.75-4.66 43.15-6.77 3.09-.45 6.18-.92 9.28-1.34a41 41 0 0 1 5.06-.56.59.59 0 0 0 0-1.17z"/><path d="m804.64 326.51c-4.23 3.48-5.82 9.15-7.26 14.43-5.21 19.13-11.66 38.63-24.89 53.39a36.22 36.22 0 0 1 -8.57 7.34c-4 2.34-8.6 3.48-13.12 4.58l-13.38 3.28a7 7 0 0 0 -3.57 1.65 6 6 0 0 0 -1.29 3.3 21.09 21.09 0 0 0 3.4 14.69c1.43 2.11 3.25 3.95 4.43 6.21 1.47 2.79 1.86 6 2.77 9a27.28 27.28 0 0 0 18.57 18.07 13.12 13.12 0 0 0 7.52.18c1.54-.51 2.91-1.44 4.4-2.07 5.15-2.19 11.08-.68 16.6-1.57a19.11 19.11 0 0 0 10.25-5.19 11 11 0 0 0 3-4.55c.72-2.36.28-4.94.83-7.35 1.29-5.56 7.17-8.5 12.2-11.22s10.42-7.24 9.52-12.87c-.49-3-2.78-5.77-2.24-8.77.78-4.35 6.88-6.05 7.82-10.36.56-2.59-1-5.13-1.33-7.75-.54-3.95 1.55-7.7 3.09-11.38a43.09 43.09 0 0 0 2.71-23.49" fill="#18c4ff"/><path d="m804.21 326.08c-4.14 3.37-6 8.55-7.36 13.52-1.56 5.51-3.13 11-5 16.42-3.67 10.87-8.25 21.52-14.9 30.92-3.44 4.86-7.47 9.82-12.5 13.11-5.3 3.46-11.75 4.61-17.8 6.1-3.25.79-6.5 1.57-9.74 2.38-2.54.64-4.5 1.8-5.21 4.48-1.41 5.33 0 11.61 2.94 16.19 1.55 2.44 3.7 4.48 5 7.11s1.66 5.84 2.58 8.72a28.17 28.17 0 0 0 8 12.26 26.9 26.9 0 0 0 13.43 6.71 13.21 13.21 0 0 0 8.56-1.5 19.1 19.1 0 0 1 8.94-2.1 68.53 68.53 0 0 0 9-.28 19.79 19.79 0 0 0 7.79-2.87 17.28 17.28 0 0 0 5.65-5.47c1.53-2.54 1.36-5.28 1.61-8.13.48-5.33 5.14-8.28 9.42-10.65s9.23-4.91 11.57-9.58a9.52 9.52 0 0 0 .79-6.65c-.64-2.54-2.77-5.27-1.94-8 .59-1.94 2.44-3.27 3.9-4.55a11.25 11.25 0 0 0 3.63-4.68c.93-2.76-.46-5.4-1-8.06-.65-3.15.53-6.21 1.73-9.07a50.19 50.19 0 0 0 4.26-17.78 42.84 42.84 0 0 0 -.66-8.76c-.17-1-1.61-.55-1.47.41a43.42 43.42 0 0 1 -1.19 18.35c-1.56 5.4-5.8 10.74-4.92 16.6.38 2.52 2.11 5.31 1.12 7.86-.72 1.86-2.51 3.13-4 4.4a11.06 11.06 0 0 0 -3.44 4.43c-.86 2.45.13 4.85 1 7.11 1 2.45 1.46 4.81.24 7.27a15.51 15.51 0 0 1 -5.1 5.49c-3.87 2.73-8.42 4.35-12 7.58a12.86 12.86 0 0 0 -3.62 5.26c-.94 2.71-.28 5.64-1.12 8.34s-3.09 4.72-5.31 6.18a18.16 18.16 0 0 1 -7.77 2.89c-5.77.71-11.64-.68-17.08 2a22.5 22.5 0 0 1 -3.77 1.72 11 11 0 0 1 -5 0 24.06 24.06 0 0 1 -7-2.59 26.7 26.7 0 0 1 -10.32-10.31 29 29 0 0 1 -2.68-7.27 25.61 25.61 0 0 0 -2.86-7.88c-1.52-2.38-3.53-4.39-4.88-6.89a20 20 0 0 1 -2.32-8c-.17-2.35-.4-6.31 2-7.58a19 19 0 0 1 4.08-1.16l4.78-1.17c5.91-1.45 12.11-2.56 17.68-5.1 5.27-2.41 9.43-6.55 13.08-11 7-8.42 12-18.22 15.82-28.39 2-5.25 3.68-10.62 5.23-16 1.46-5.1 2.44-10.51 4.57-15.38a17.32 17.32 0 0 1 4.28-6.16c.59-.52-.26-1.33-.85-.85z"/><g fill="#fff"><path d="m740.4 411.57c3.1.87 3.56 5 3.27 7.71a13.19 13.19 0 0 1 -2.73 6.6c-.53.66-1.18 1.18-1.72 1.82s.13 1.56.85 1.11a11.08 11.08 0 0 0 3.51-4.38 14.66 14.66 0 0 0 1.51-5.55c.21-3.19-.81-7.52-4.4-8.38a.55.55 0 0 0 -.29 1.07z"/><path d="m760.52 447.6c-1.46.84-2.7-.77-3.09-2a15.63 15.63 0 0 1 -.66-4.13 4.46 4.46 0 0 1 1.7-3.87 11.63 11.63 0 0 1 4-2 8.58 8.58 0 0 1 7.9 1.28 5.72 5.72 0 0 1 1.76 6.73 5.44 5.44 0 0 1 -3.42 2.72 17.44 17.44 0 0 1 -2.13.53c-.18 0-2.36.44-2-.17a.76.76 0 0 0 -1.32-.77 1.7 1.7 0 0 0 .14 2 2.52 2.52 0 0 0 2.49.72 14.1 14.1 0 0 0 5.31-1.67 6.85 6.85 0 0 0 2.09-9.2c-1.92-3.31-5.94-4.64-9.57-4.08s-8 2.74-8.32 6.82a12.82 12.82 0 0 0 .34 3.38 11 11 0 0 0 .84 2.89c.81 1.65 2.83 2.86 4.57 1.8a.58.58 0 0 0 -.58-1z"/><path d="m770 400.1a6.22 6.22 0 0 0 -3.69 7.43c1 3.52 4.37 5.69 7.82 6.16s8.24-.21 10.58-3.24a11.24 11.24 0 0 0 2-4.74c.36-1.79.57-3.69-.51-5.28-1.42-2.1-7.83-6.38-9-2a.75.75 0 0 0 1.45.41c.85-2.34 5.91 1.68 6.5 2.86s.25 3-.08 4.32a9.2 9.2 0 0 1 -1.61 3.56c-1.82 2.31-5.31 2.82-8.08 2.73a8.39 8.39 0 0 1 -7.19-3.89c-1.41-2.48-.71-6.11 2.12-7.25.64-.26.38-1.3-.29-1.06z"/><path d="m791.22 450.87c-1.87-3-2.86-7.22-.68-10.31a6.23 6.23 0 0 1 4-2.41 6.4 6.4 0 0 1 2.31 0 11.75 11.75 0 0 1 2.31.82c.64.25 1.15-.71.67-1.15a6.27 6.27 0 0 0 -4.22-1.28 8.11 8.11 0 0 0 -4.24 1.31c-2.75 1.84-3.69 5.15-3.22 8.31a13.36 13.36 0 0 0 2.07 5.3c.41.63 1.42.05 1-.59z"/><path d="m808.93 403.94a12.06 12.06 0 0 0 -7 6.36 6 6 0 0 0 -.15 5 9.71 9.71 0 0 0 3.33 3.47c2.8 2 6.06 2.5 9.12.76a11.51 11.51 0 0 0 5.6-7.77 5.67 5.67 0 0 0 -1.43-4.93 10.86 10.86 0 0 0 -4.54-2.48c-.8-.26-1.37 1-.58 1.38 2.23 1 5 2 5.05 4.92 0 2.62-1.8 5.24-3.8 6.82a6.54 6.54 0 0 1 -7.51.72 12.18 12.18 0 0 1 -3.21-2.5 4.22 4.22 0 0 1 -.91-4.05 10.35 10.35 0 0 1 6.31-6.57c.68-.27.4-1.38-.31-1.12z"/><path d="m803.41 371.59a6.74 6.74 0 0 0 -5 1.86 11.24 11.24 0 0 0 -3 5.08c-.61 1.88-1.31 4.24-1 6.23a6.91 6.91 0 0 0 3.06 4.35 10.06 10.06 0 0 0 9.63 1 9.64 9.64 0 0 0 5.53-7.89c.41-3.6-1.54-8.69-5.77-8.81-1.07 0-1.06 1.59 0 1.66 3 .18 4.29 3.94 4.19 6.48a8.16 8.16 0 0 1 -3.87 6.72 8.46 8.46 0 0 1 -7.87.14 6.74 6.74 0 0 1 -3.1-2.94c-.75-1.57-.13-3.57.26-5.17.89-3.63 2.91-7.16 7-7.57a.56.56 0 0 0 0-1.11z"/><path d="m827.3 348.2a6 6 0 0 0 -.3 7.58 8.32 8.32 0 0 0 7.92 3 .72.72 0 0 0 .17-1.3l-.36-.2c-.78-.45-1.41.68-.69 1.19l.33.24.36-1.33a9.13 9.13 0 0 1 -3.64-.33 6.28 6.28 0 0 1 -2.91-1.94 5 5 0 0 1 -.09-6.13c.46-.53-.28-1.3-.79-.78z"/><path d="m809.73 337.32c-2.68 1.85-5.37 4.43-6.06 7.74a7.49 7.49 0 0 0 3.61 7.94 7.79 7.79 0 0 0 8.78-.74 8.5 8.5 0 0 0 3-8.62 9.35 9.35 0 0 0 -2.66-4.64 2.4 2.4 0 0 0 -2.46-.84 1.45 1.45 0 0 0 -.78 2c.36.8 1.67.23 1.41-.59 0 .17-.11 0 .12.11a1.6 1.6 0 0 1 .4.28 6.55 6.55 0 0 1 .65.64 7.49 7.49 0 0 1 1 1.52 7.76 7.76 0 0 1 .92 3.56 6.89 6.89 0 0 1 -3.4 6 6.19 6.19 0 0 1 -6.66-.13 6 6 0 0 1 -2.66-6.31c.64-2.91 3-5.21 5.31-6.89.59-.42 0-1.4-.57-1z"/><path d="m831.37 376.85a3.29 3.29 0 0 0 -2.31 3.41.82.82 0 0 0 .22.51.69.69 0 0 0 .61.2.73.73 0 0 0 .61-.91c0-.07 0-.16 0 0 0 0 0-.07 0-.11s0-.13 0-.2 0-.15 0-.22 0-.15 0 0 0 0 0 0 .07-.27.11-.41a.36.36 0 0 0 0-.09c0-.11 0 .1 0 0a1.24 1.24 0 0 1 .1-.2l.1-.18.12-.16c-.06.07-.07.08 0 0l.07-.08.14-.14c.05 0 .12-.09.17-.15l-.06.05.14-.11c.07-.06 0 0 0 0s.11-.09.17-.12a1 1 0 0 1 .21-.11.56.56 0 0 0 .22-.69.54.54 0 0 0 -.64-.31z"/></g><g fill="#18c4ff"><path d="m719.64 737.39a2.26 2.26 0 0 0 1.36 2.71 2.81 2.81 0 0 0 3.29-1.15c2-2.82-.21-7.17-2.09-9.44a.75.75 0 0 0 -1.25.33c-.48 3.43 3.69 5.8 6.09 2.95 1.22-1.45.9-3.53.44-5.2a16.22 16.22 0 0 0 -2.84-5.64.84.84 0 0 0 -1.5.2 3.65 3.65 0 0 0 5.71 4c3.46-2.68-.14-8.64-2-11.24a.85.85 0 0 0 -1.55.66 4.74 4.74 0 0 0 5.4 3.43.87.87 0 0 0 .63-.84 14.28 14.28 0 0 0 -4.66-11.62c-.85-.77-2.12.5-1.26 1.26a12.61 12.61 0 0 1 4.19 10.36l.64-.83a3 3 0 0 1 -3.36-2.22l-1.56.65a19.92 19.92 0 0 1 1.95 3.21 10 10 0 0 1 1.28 4.19 2.09 2.09 0 0 1 -2.39 2.12 2.11 2.11 0 0 1 -1.47-2.69l-1.37.36a13.27 13.27 0 0 1 2.92 6.81c.09 1.18-.3 2.41-1.58 2.69a2 2 0 0 1 -2.27-2.4l-1.28.53a10.56 10.56 0 0 1 2.37 4.66 3.68 3.68 0 0 1 -.45 3.2c-.72.81-2.65.79-2.26-.73a.59.59 0 0 0 -1.13-.31z"/><path d="m730.2 701.43a135.32 135.32 0 0 0 15.23 3.87 108.43 108.43 0 0 0 15.32 2.06c1 0 1-1.5 0-1.61-5.16-.56-10.28-1-15.39-2s-10-2.09-14.85-3.5a.59.59 0 0 0 -.31 1.14z"/><path d="m920.27 699c2.69.16 5.18-1 7.62-2 2.75-1.07 5.48-2.21 8.2-3.34 5.27-2.2 10.68-4.29 15.76-6.91.81-.42.24-1.84-.63-1.5-5.09 2-10 4.5-15.05 6.7-2.48 1.08-5 2.14-7.46 3.21s-5.48 2.81-8.44 2.73c-.71 0-.7 1.06 0 1.11z"/><path d="m923.56 713.12c1.32-.52 3.23-1.37 4.54-.45a1.67 1.67 0 0 1 .8 1.63c-.24.8-1.32.86-2 .88l.21 1.56c1.4-.4 3.13-.7 4.3.41s.72 3.3-1 2.71v1.63c1.47-.32 3.39.11 4 1.62a2.25 2.25 0 0 1 -1.72 3.13l.44 1.63a3.56 3.56 0 0 1 4.93 1.13 2.33 2.33 0 0 1 -.14 2.71 1.73 1.73 0 0 1 -2.33.2l-.69 1.63c1.43.56 3.24 1.27 4 2.73.55 1.1.09 3-1.38 3.05a.81.81 0 0 0 0 1.62c2.31.3 3.67-2.23 3.38-4.26-.39-2.7-3.24-4-5.49-4.86-1-.39-1.44 1.09-.69 1.63a3.44 3.44 0 0 0 4-.05 3.79 3.79 0 0 0 1.4-4.09c-.82-3.43-4.95-4.63-7.81-2.95a.88.88 0 0 0 .45 1.63 4 4 0 0 0 3.51-5c-.72-2.68-3.82-3.67-6.28-3.12a.85.85 0 0 0 0 1.63 3.06 3.06 0 0 0 3.69-4c-1-2.89-4.45-3.18-6.92-2.31-.79.28-.73 1.62.22 1.56a3.85 3.85 0 0 0 3.02-1.25 2.6 2.6 0 0 0 0-2.82c-1.53-2.68-4.69-1.7-6.9-.6-.57.28-.17 1.28.44 1z"/></g><path d="m671.9 454.28a20 20 0 0 0 2-6.89.66.66 0 0 0 -.65-.65.66.66 0 0 0 -.65.65 21.93 21.93 0 0 1 -1.66 6.32.59.59 0 0 0 .21.78.58.58 0 0 0 .78-.21z"/><path d="m677.26 455a18.78 18.78 0 0 0 1.69-3.46c.22-.59.41-1.19.57-1.79a10.25 10.25 0 0 0 .39-2 .72.72 0 0 0 -1.4-.19c-.17.6-.22 1.24-.37 1.84s-.29 1.14-.47 1.69a22.92 22.92 0 0 1 -1.39 3.31.57.57 0 0 0 1 .57z"/><path d="m683.8 455.14a16.55 16.55 0 0 0 2.94-7.87.73.73 0 1 0 -1.45 0 17.79 17.79 0 0 1 -2.49 7.28c-.41.64.58 1.19 1 .59z"/><g fill="#fff"><path d="m722.9 407.35a5.23 5.23 0 0 1 -1.47 4.85c-.57.56.32 1.45.88.88a6.42 6.42 0 0 0 1.64-6c-.17-.68-1.2-.39-1.05.29z"/><path d="m740.57 403.17c-1-2 .36-4.11 1.91-5.36a10 10 0 0 1 5.7-2.38 5.32 5.32 0 0 1 4.78 8 .72.72 0 0 0 1.25.73 6.86 6.86 0 0 0 -3-9.55 7.26 7.26 0 0 0 -5.64-.11 12.53 12.53 0 0 0 -5 3.28 5.41 5.41 0 0 0 -1.08 6c.36.69 1.38.08 1.05-.61z"/><path d="m761.41 378.93a4.28 4.28 0 0 0 5.35 5.12.63.63 0 0 0 -.33-1.21 3.2 3.2 0 0 1 -4-3.62.55.55 0 0 0 -.38-.66.54.54 0 0 0 -.66.37z"/><path d="m766.68 397.76c0-.06 0-.13 0-.19 0 .18 0 .06 0 0s0-.06 0-.09.07-.25.11-.38v-.07c0-.12-.06.13 0 0l.09-.17a3.62 3.62 0 0 1 .2-.33l.06-.08s-.08.1 0 0l.12-.14.29-.27c-.08.07 0 0 0 0l.16-.1c.11-.07.24-.13.36-.19a.63.63 0 0 0 .3-.38.68.68 0 0 0 -.07-.5.67.67 0 0 0 -.88-.23 3.61 3.61 0 0 0 -2 3.12.59.59 0 0 0 .59.59.61.61 0 0 0 .6-.59z"/><path d="m732.24 453.91a9 9 0 0 0 4.6-5.23 7 7 0 0 0 .42-2.43.64.64 0 0 0 -1.27 0 10.11 10.11 0 0 1 -.34 2 8.17 8.17 0 0 1 -.89 1.89 7.61 7.61 0 0 1 -3.11 2.73.59.59 0 0 0 -.21.79.61.61 0 0 0 .8.21z"/><path d="m744.69 460.77c.6-.23 1.16-.53 1.73-.81l1.64-.81a.62.62 0 0 0 -.63-1.07l-1.58.85c-.52.29-1.06.55-1.56.89a.52.52 0 0 0 .4.95z"/></g><g fill="#18c4ff"><path d="m549.56 419.93a17.39 17.39 0 0 1 5.07 6.24c1.39 2.53 2.68 5.13 4 7.72q3.88 7.89 7.18 16.06a243 243 0 0 1 10.7 33.15c1.56 6.36 2.64 12.78 3.91 19.2.15.75 1.45.59 1.36-.19a167.64 167.64 0 0 0 -3.44-17.62q-2-8.65-4.73-17.13a235.9 235.9 0 0 0 -13.34-33.11c-1.44-2.93-2.92-5.86-4.55-8.69a18.56 18.56 0 0 0 -5.59-6.53c-.56-.38-1.07.52-.53.9z"/><path d="m601 426.67a71.83 71.83 0 0 1 12 35c.05.76 1.24.76 1.19 0a71.71 71.71 0 0 0 -12.34-35.5c-.37-.55-1.28 0-.9.52z"/><path d="m614 466.42a.56.56 0 0 0 0-1.12.56.56 0 0 0 0 1.12z"/><path d="m612.44 432.45a47.46 47.46 0 0 1 6.39 19.63c.08.75 1.24.77 1.19 0a45.3 45.3 0 0 0 -6.64-20.18.54.54 0 0 0 -.94.55z"/><path d="m620.76 433.88a12.14 12.14 0 0 1 3.32 6.11c.48 2.26.36 4.66 1.64 6.68.39.63 1.39.05 1-.58-1.32-2.08-1.07-4.69-1.7-7a13.24 13.24 0 0 0 -3.52-5.95.52.52 0 0 0 -.74.74z"/><path d="m555.93 427.28-423.93 76.77a130.22 130.22 0 0 0 -107 128.13 130.21 130.21 0 0 0 130.21 130.21 379.6 379.6 0 0 0 269.24-112l155.2-156.16s-7.86-30.93-11-38.81-8.88-20.59-8.88-20.59l-2.22-4.42"/></g><path d="m155.81 733c-26.87-.27-59.66-12.71-77-33.2s-24.93-49.18-19.12-75.42c2.38-10.76 6.85-20.95 11.84-30.78 14.51-28.58 34.89-55.73 63.73-69.71-7.15-4.6-15.42-7.51-21.83-13.09s-10.51-15.37-6.13-22.66 16.54-7.55 21.26-.57c-2.54-7.39 1.2-16.71 8.57-19.33s16.73 3.25 16.67 11.07c2.05-7.16 5.39-14.72 12.07-18s16.9 1 16.42 8.46c5-5.44 12.17-9.87 19.42-8.47s12.46 11.09 7.58 16.63c1.84-4.22 8-5.27 11.8-2.68s5.3 7.69 4.68 12.26-3 8.69-5.55 12.51a102.33 102.33 0 0 1 -19.82 21.82c26.83 8.59 51.48 24.39 69.61 46s31 50.5 31.13 79.31c.14 33.37-18.93 58.8-48.77 72.38q-2.1.94-4.23 1.82c-22.42 9.23-49.33 16.26-73.71 14.5-12-.87-30-3.68-38.86-12.77" fill="#fff"/><path d="m252.15 718.89c-8 2.9-15.91 6.15-24.09 8.66a186.25 186.25 0 0 1 -25.41 5.94 123.64 123.64 0 0 1 -46.13-1.31c-7.31-1.65-15-4.33-20.37-9.75a.89.89 0 0 0 -1.26 1.26c4.78 4.82 11.32 7.64 17.74 9.55a96.07 96.07 0 0 0 20.54 3.57c17.45 1.24 35-1.59 51.72-6.39 4.78-1.37 9.51-2.89 14.17-4.61a97.74 97.74 0 0 0 13.58-5.76c.62-.34.2-1.4-.49-1.16z"/><path d="m155.81 732.4a117.31 117.31 0 0 1 -52.12-14.15 88.16 88.16 0 0 1 -21.34-15.84 83.71 83.71 0 0 1 -15.72-23.5 86.71 86.71 0 0 1 -5.39-57.17c2.73-10.61 7.36-20.63 12.41-30.3a215.34 215.34 0 0 1 14.95-24.65c10.9-15.42 24.4-29.3 40.9-38.73 2-1.17 4.1-2.25 6.21-3.28a1 1 0 0 0 0-1.71c-8.86-5.68-20.4-9-26.21-18.4-2.5-4-4-9.14-2.38-13.79a10.92 10.92 0 0 1 8.84-7.12c4.29-.71 9.1.7 11.66 4.37.63.91 2.29.39 1.9-.8-2.23-6.77.87-15.66 8-18.06 6.6-2.22 15 2.85 15.08 10.07a1.14 1.14 0 0 0 2.23.3c2-6.77 5.42-15.61 12.91-17.87 5.44-1.63 13.72 1.41 13.45 8a1 1 0 0 0 1.77.73c4.8-5.2 13-10.83 20.39-7.66 5.07 2.17 9.3 9.56 5.21 14.42l1.48 1.15c1.53-3.27 5.57-4.31 8.83-3.21 3.93 1.32 5.88 5.74 6.06 9.61.22 4.77-2 9.24-4.5 13.16a95.53 95.53 0 0 1 -8.91 11.8 103.75 103.75 0 0 1 -11.81 11.44c-.89.74.38 2 1.26 1.27a97.3 97.3 0 0 0 22-25.24c2.56-4.36 4.36-9.3 3.54-14.41-.66-4.1-3.2-8.16-7.31-9.46s-8.94.15-10.8 4.09c-.43.9.74 2 1.48 1.14 3.65-4.29 2.26-10.31-1.24-14.25-4.4-4.95-11.28-5.19-17.08-2.7a30.59 30.59 0 0 0 -10.08 7.39l1.78.73c.28-5.85-5.09-9.77-10.4-10.52-6.63-.94-12.08 3.15-15.49 8.52a43.29 43.29 0 0 0 -4.72 11.23l2.23.3c-.08-6.61-5.83-11.77-12.13-12.66-6.88-1-12.74 3.75-15 10a17.11 17.11 0 0 0 -.22 11.19l1.9-.8c-5.11-7.27-17.26-7.46-22.52-.22-3 4.19-3 9.78-1.3 14.48a27.31 27.31 0 0 0 10.49 12.88c5.88 4.08 12.6 6.73 18.63 10.56v-1.71c-17.44 8.53-31.89 21.93-43.64 37.24a198.79 198.79 0 0 0 -16.09 24.74 178.49 178.49 0 0 0 -13.56 29.51 88.58 88.58 0 0 0 .94 58.88 90.29 90.29 0 0 0 14.34 25.4 80.79 80.79 0 0 0 20 17.49 115.81 115.81 0 0 0 52.54 17.18c2.16.15 4.33.2 6.5.19a.64.64 0 0 0 0-1.27z"/><path d="m134.91 524.49q11.15 1.11 22.32 1.92c5.35.4 12 1.42 16.12-2.87a1.2 1.2 0 0 0 -.84-2 3.14 3.14 0 0 0 -2.72 4.26c.72 2 3.06 3 5.06 3.05a8.07 8.07 0 0 0 8.11-7.27c.09-1.08-1.29-1.43-2-.82a4.41 4.41 0 0 0 -.93 5.09 5.63 5.63 0 0 0 4.78 3.29c4.65.51 9.44-2.49 12.29-5.94l-2.07-.86a3.2 3.2 0 1 0 6.21-.94c-.47-1.51-2.85-.86-2.37.65.39 1.24-1.36 1.6-1.42.29a1.22 1.22 0 0 0 -2.25-.61 13.46 13.46 0 0 1 -8.22 5.06c-1.46.24-3.31.16-4.36-1a2.37 2.37 0 0 1 0-3.37l-2-.82a5.63 5.63 0 0 1 -3.94 4.59 4.88 4.88 0 0 1 -2.93.06 2.89 2.89 0 0 1 -1.48-.93c-.25-.33-.53-1.33.22-1.38l-.84-2c-3.82 4.11-11 2.64-15.91 2.39-6.95-.35-13.9-.68-20.85-.88-.74 0-.71 1 0 1.12z"/><path d="m200.5 523c7.48-7.54 16.34-14.35 26.25-18.4 4-1.64 10.9-2.48 12.45 3 1.44 5.06-3 9.11-7.21 10.91a37.51 37.51 0 0 1 -19.3 2.37c-.69-.09-.86 1.11-.16 1.23a39.2 39.2 0 0 0 19.14-1.28c5.11-1.72 10-5.37 10.18-11.21s-5.07-9-10.35-8.48a24 24 0 0 0 -8.32 2.91 81.66 81.66 0 0 0 -8 4.68 79.27 79.27 0 0 0 -15.57 13.44c-.52.58.3 1.41.85.85z"/><path d="m202.34 523.6c1.5-1 3.31 0 4.69.73a27.27 27.27 0 0 1 3.58 2.26 25.32 25.32 0 0 1 5.91 6.22 25.88 25.88 0 0 1 4.09 17.83c-.65 4.58-3.51 12.2-9.55 10.43-6.42-1.89-6.93-10.7-7.18-16.16-.16-3.72-.08-7.44-.22-11.16s-.26-7.67-1.54-11.13a.72.72 0 0 0 -1.38.38c.32 2 .75 3.92.94 5.92a59.86 59.86 0 0 1 .24 6c0 3.87-.16 7.75 0 11.62.27 6.32 1.56 15.31 9.07 16.92 6.61 1.41 10.47-5.47 11.5-11a27.1 27.1 0 0 0 -4-20 27.69 27.69 0 0 0 -7.45-7.5c-2.32-1.59-6.54-4.39-9.34-2.45-.62.43-.05 1.44.6 1z"/><g fill="#18c4ff"><path d="m92.4 612.36a11.25 11.25 0 0 0 -5.34 14.23c.31.73 1.59.2 1.29-.54a10.22 10.22 0 0 1 4.65-12.66c.68-.35.08-1.35-.6-1z"/><path d="m93.24 640.87a6.26 6.26 0 0 0 .05 9.93c.77.54 1.5-.73.73-1.26a5 5 0 0 1 -.17-7.63.61.61 0 0 0 .21-.82.6.6 0 0 0 -.82-.22z"/><path d="m103.56 669.08a3.12 3.12 0 0 0 -2.68 2.81 7.44 7.44 0 0 0 .11 2.49 6.93 6.93 0 0 1 .2 2.86.66.66 0 0 0 1.27.35 6.28 6.28 0 0 0 .07-2.59 15.36 15.36 0 0 1 -.32-2.33c0-.84.32-2.25 1.35-2.35a.64.64 0 0 0 .62-.62.62.62 0 0 0 -.62-.62z"/><path d="m131.5 685.06c-1.27-1-2.88 0-3.55 1.22a6.09 6.09 0 0 0 -.52 2.35 4.61 4.61 0 0 1 -.54 2.16c-.46.73.71 1.42 1.17.68a5 5 0 0 0 .63-2.14 17.38 17.38 0 0 1 .19-2 2.41 2.41 0 0 1 .82-1.28.88.88 0 0 1 1.16-.12c.49.35 1.11-.45.64-.83z"/><path d="m127.71 703.94a9.69 9.69 0 0 0 9.11-.63c.73-.47.06-1.65-.69-1.18a8.33 8.33 0 0 1 -7.71.61.72.72 0 0 0 -1 .25.7.7 0 0 0 .25 1z"/><path d="m251.17 596.55a1.59 1.59 0 0 1 1.53-.23 2.72 2.72 0 0 1 1.4 1c1 1.33.7 3.22.54 4.74a.7.7 0 0 0 1.4 0c.17-1.94.28-4.15-1.05-5.73-1-1.23-3.06-1.91-4.45-.87a.66.66 0 0 0 -.23.86.64.64 0 0 0 .86.23z"/><path d="m250.25 614.73-1.15 2.67a.68.68 0 0 0 -.07.5.63.63 0 0 0 .3.38.65.65 0 0 0 .88-.23l1.14-2.68a.69.69 0 0 0 .06-.49.62.62 0 0 0 -.29-.38.64.64 0 0 0 -.87.23z"/><path d="m244.12 587a8.08 8.08 0 0 1 5.77 0 .66.66 0 0 0 .8-.45.67.67 0 0 0 -.45-.81 9.15 9.15 0 0 0 -6.46 0 .64.64 0 0 0 -.44.78.63.63 0 0 0 .78.44z"/><path d="m273.67 620.15a16.73 16.73 0 0 1 .7 3 11.11 11.11 0 0 1 -.16 3.1 10.2 10.2 0 0 1 -3 5.36c-.74.69.36 1.79 1.11 1.11a11.12 11.12 0 0 0 3.39-6.14c.42-2.2.35-5-.93-6.92a.62.62 0 0 0 -1.13.47z"/><path d="m271.23 656.37 1.92 3.06a.68.68 0 0 0 1.18-.69l-1.89-3.07a.71.71 0 0 0 -1-.26.72.72 0 0 0 -.25 1z"/><path d="m254.49 674.2a21.24 21.24 0 0 1 -13.61 5.46c-1 0-1 1.58 0 1.54a22.86 22.86 0 0 0 14.66-6c.7-.64-.34-1.68-1-1z"/></g><path d="m117.67 494.13q5.31 2.43 10.65 4.8a36.69 36.69 0 0 0 9.68 3.25 12.63 12.63 0 0 0 9.27-2.19c2.6-1.85 4.79-4.55 8-5.38s5.15 1.57 7.22 3.68 4.41 3.46 7.46 3.08c3.22-.4 5.87-2.38 8.1-4.62 1.05-1.05 2-2.57 3.32-3.34s2.73 1 3.94 1.52c4.49 1.83 10.43-1.11 11.18-6 .11-.72-1-1-1.12-.3-.76 4.56-6.92 7.33-10.7 4.41-.9-.7-1.67-1.54-2.92-1.36s-2.29 1.36-3.17 2.27c-2.26 2.36-4.71 4.94-8.06 5.58a6 6 0 0 1 -4.58-.81 13.27 13.27 0 0 1 -2.6-2.69c-1.69-2-3.58-3.87-6.39-4-6.65-.28-9.66 7.6-16 8.31-3.68.41-7.37-.95-10.73-2.28-4-1.59-8-3.25-11.95-5-.7-.3-1.32.71-.61 1z"/><path d="m193.68 618.6c-2.18-.59-4.37-1.19-6.5-2-.23-.09-2-.69-.68-.25a9.74 9.74 0 0 1 -1.46-.69 14.88 14.88 0 0 1 -1.4-.8c-.23-.14-.45-.29-.67-.44-.53-.38-.44-.31.27.23-.41.13-1.75-1.78-2.06-2 .65.89.79 1.06.41.51q-1.87-2.45-.41-.54c-.2-.39-.51-.75-.74-1.13s-.38-.82-.62-1.2c.48 1.16.58 1.41.32.75-.08-.21-.15-.42-.22-.63a15.55 15.55 0 0 1 -.6-2.62l.26 2a18.8 18.8 0 0 1 0-4.74l-.27 2.06a20.1 20.1 0 0 1 1.38-5l-.82 2a27 27 0 0 1 3.27-5.5l-1.34 1.74a22.23 22.23 0 0 1 3.58-3.61l-1.8 1.26a21.6 21.6 0 0 1 4.49-2.66l-2.16.92a24.51 24.51 0 0 1 5.89-1.62l-2.44.32a18.67 18.67 0 0 1 4.42 0l-2.43-.33a15.39 15.39 0 0 1 3.71 1l-2.19-.92a13.51 13.51 0 0 1 2.5 1.44l-1.86-1.44a15.34 15.34 0 0 1 2.63 2.71l-1.43-1.84a10.35 10.35 0 0 1 1.14 2l-.9-2.13c.54 1.39 1.19 2.73 1.77 4.1l-.84-2c.11.3.21.59.3.9a8.06 8.06 0 0 0 6.68 5.76c2.95.4 6.64-1 8-3.84a13.61 13.61 0 0 0 1.47-9 16 16 0 0 0 -2.24-5.52 20.92 20.92 0 0 0 -11-8.18c-4.17-1.43-8.68-1.24-12.95-.48a26.56 26.56 0 0 0 -11.7 5.77c-11.1 8.74-14.38 27-4.07 37.66 5.69 5.88 14.61 6.18 22.24 6.11 4.6 0 5.62-6.83 1.09-8.06z"/><path d="m190.3 586.88.33-.78-.48 1.14a8.65 8.65 0 0 0 .92-3.92l.08-1.83c.06-1.33.18-2.64.33-4 .4-3.77 1-8-1.15-11.46a9 9 0 0 0 -3-2.95 8.15 8.15 0 0 0 -5.23-1 7.7 7.7 0 0 0 -3.88 1.62 7.58 7.58 0 0 0 -3 4.26 10.28 10.28 0 0 0 0 5c.08.29.18.59.28.88a23.36 23.36 0 0 0 1.5 3.76c.59 1.18 1.24 2.33 1.86 3.5s1.2 2.34 1.75 3.55c.28.63.53 1.28.85 1.88a9 9 0 0 0 1.83 2.21 4.25 4.25 0 0 0 4.1 1.09 4.43 4.43 0 0 0 2.94-3z"/><path d="m190.31 626.32c2.18.6 4.37 1.2 6.5 2 .23.09 2 .69.69.25a11.44 11.44 0 0 1 1.46.69c.47.25.94.51 1.39.8.23.14.45.29.67.44.53.38.44.31-.26-.23.4-.13 1.75 1.79 2.06 2q-1-1.34-.42-.51l.41.53c.2.39.52.75.74 1.13s.39.83.62 1.2c-.47-1.16-.58-1.41-.32-.75.08.21.15.42.22.63a16.88 16.88 0 0 1 .61 2.62l-.26-2a18.34 18.34 0 0 1 0 4.74l.28-2a20.61 20.61 0 0 1 -1.39 5l.82-2a27.53 27.53 0 0 1 -3.27 5.5l1.34-1.75a21.83 21.83 0 0 1 -3.57 3.62l1.78-1.38a21.17 21.17 0 0 1 -4.49 2.66l2.16-.91a25 25 0 0 1 -5.88 1.61l2.43-.32a18.67 18.67 0 0 1 -4.42 0l2.44.33a15.35 15.35 0 0 1 -3.72-1l2.19.92a13.43 13.43 0 0 1 -2.49-1.44l1.85 1.44a14.94 14.94 0 0 1 -2.62-2.71l1.42 1.84a10.35 10.35 0 0 1 -1.14-2l.9 2.14c-.53-1.4-1.18-2.74-1.77-4.1l.85 2a7.31 7.31 0 0 1 -.3-.9 8.07 8.07 0 0 0 -6.69-5.76c-2.95-.39-6.64 1-8 3.84a13.61 13.61 0 0 0 -1.47 9 16.22 16.22 0 0 0 2.24 5.52 20.91 20.91 0 0 0 11 8.18c4.17 1.43 8.68 1.24 13 .48a26.58 26.58 0 0 0 11.67-5.67c11.1-8.74 14.38-27 4.07-37.66-5.69-5.88-14.61-6.18-22.24-6.11-4.6 0-5.61 6.84-1.09 8.06z"/><path d="m193.69 658-.33.78.48-1.13a8.61 8.61 0 0 0 -.92 3.91l-.08 1.83c-.06 1.33-.18 2.64-.32 4-.41 3.77-1 8.05 1.15 11.46a8.82 8.82 0 0 0 2.94 2.95 8.16 8.16 0 0 0 5.23 1 7.81 7.81 0 0 0 3.89-1.61 7.62 7.62 0 0 0 2.94-4.27 10.36 10.36 0 0 0 0-5c-.09-.3-.19-.6-.28-.89a25.51 25.51 0 0 0 -1.39-3.68c-.6-1.18-1.24-2.33-1.86-3.5s-1.21-2.34-1.76-3.55c-.28-.63-.53-1.28-.84-1.88a9.71 9.71 0 0 0 -1.83-2.21 4.24 4.24 0 0 0 -4.11-1.08 4.44 4.44 0 0 0 -2.94 2.94z"/><g fill="#fff"><path d="m544.55 432.43a306.75 306.75 0 0 0 15.56 52.48c1.85 4.75 3.76 9.51 6 14.1.32.66 1.48.18 1.2-.51-3.35-8.41-6.85-16.75-9.84-25.3s-5.67-17.21-8.05-25.94c-1.36-5-2.59-10.06-3.81-15.11-.17-.67-1.16-.38-1 .28z"/><path d="m508.83 462.17c-15.54 1.15-31.14 1.18-46.71 1.53-15.39.33-30.82.92-46.07 3.14-15 2.19-29.81 6.07-43.46 12.77-6.31 3.09-12.4 6.89-16.93 12.36-4 4.87-6.58 11.12-4.82 17.45 1.68 6.07 7 10.42 12.84 12.28 7.15 2.3 14.86.59 21.51-2.47a57.91 57.91 0 0 0 5.34-2.82.89.89 0 0 0 .31-1.21 15.17 15.17 0 0 0 -11.84-6.42c-5.37-.39-10.54 1.79-14.87 4.81s-8.82 6.91-11.4 11.59c-2.17 4-2.69 9.12 1 12.33 3 2.57 8 3.51 10.41-.29a.87.87 0 0 0 -1-1.26 118.41 118.41 0 0 0 -51.66 27.38 113.66 113.66 0 0 0 -11.59 12.24c-.63.77.46 1.88 1.1 1.1a116.92 116.92 0 0 1 47.01-34.14 113.37 113.37 0 0 1 15.7-4.92l-1-1.26c-1.82 2.87-5.83 1.65-7.9-.27-3.27-3-2-7.71.09-11.05a37.18 37.18 0 0 1 10.11-9.93c3.65-2.55 7.89-4.54 12.41-4.61s9.31 1.67 11.89 5.59l.32-1.21c-6.54 3.88-14.21 7-22 6-6-.79-12.12-4.41-14.61-10.14-2.68-6.18-.21-12.8 3.88-17.7 4.43-5.31 10.31-9 16.45-12 13-6.41 27.09-10.22 41.37-12.45 14.58-2.28 29.36-3 44.09-3.38s29.63-.5 44.41-1.45c1.85-.12 3.71-.25 5.56-.4.72-.06.72-1.18 0-1.13z"/></g></svg>